# xmcd
#
# Track frame offsets:
#	150
#	16100
#	32232
#	48703
#	74561
#	91304
#	106237
#	119081
#	134542
#	149399
#	168279
#	184941
#	207841
#	224477
#
# Disc length: 3378
#
# Revision: 6
# Processed by: cddbd v1.5.1PL0 Copyright (c) Steve Scherf et al.
# Submitted via: dBpowerAMP V4.0
# Normalized: r5:TDELIM( - )
#
DISCID=d90d300e
DTITLE=Various Artist - Celso Portiolli Faz a Festa 3
DYEAR=1900
DGENRE=Dance
TTITLE0=Rui da Silva feat. Cassandra - Touch me
TTITLE1=Fragma feat. Maria Rubia - Eveytime you need me
TTITLE2=Darude - Sandstorm
TTITLE3=Spiller - Groovejet
TTITLE4=Magic Box - Carillon
TTITLE5=Salsotto feat. DJ Stella - No time for lies
TTITLE6=Lips - 1993
TTITLE7=Blue Storm - Land of freedom
TTITLE8=The Underdog Project - Tonight
TTITLE9=RMN - Thought of you
TTITLE10=Donna - Everybody
TTITLE11=Joey Negro - Saturday
TTITLE12=Mamiko - Walking in the sunshine
TTITLE13=Plaid - One More Time
EXTD=Ronivon C. Costa submitted this Brazillian dance music collection.
EXTT0=
EXTT1=
EXTT2=
EXTT3=
EXTT4=
EXTT5=
EXTT6=
EXTT7=
EXTT8=
EXTT9=
EXTT10=
EXTT11=
EXTT12=
EXTT13=
PLAYORDER=
